<svg width="29" height="27" viewBox="0 0 29 27" fill="none" xmlns="http://www.w3.org/2000/svg">
<path d="M27.6288 12.5283V21.4788C27.6288 23.8158 21.6677 25.7103 14.3144 25.7103C6.96098 25.7103 1 23.8158 1 21.4788V13.8529" stroke="white" stroke-width="2" stroke-miterlimit="22.9256" stroke-linecap="round" stroke-linejoin="round"/>
<path d="M27.6288 5.80908V13.1529C27.6288 15.4899 21.6677 17.3843 14.3144 17.3843C6.96098 17.3843 1 15.4898 1 13.1529V5.80908" stroke="white" stroke-width="2" stroke-miterlimit="22.9256" stroke-linecap="round" stroke-linejoin="round"/>
<path d="M14.3144 9.46296C21.6678 9.46296 27.6288 7.56846 27.6288 5.23148C27.6288 2.8945 21.6678 1 14.3144 1C6.96106 1 1 2.8945 1 5.23148C1 7.56846 6.96106 9.46296 14.3144 9.46296Z" stroke="white" stroke-width="2" stroke-miterlimit="22.9256" stroke-linecap="round" stroke-linejoin="round"/>
</svg>
